<?xml version="1.0" encoding="UTF-8" standalone="no"?> <svg fill="#ffa500" xmlns="http://www.w3.org/2000/svg" viewBox="0 0 64 64"><g id="Layer_20"><path d="M15.56,46.06a.84.84,0,0,0,.61-.23.83.83,0,0,0,.26-.66.8.8,0,0,0-.26-.61.88.88,0,0,0-1.25,0,.84.84,0,0,0-.25.61.85.85,0,0,0,.26.66A.91.91,0,0,0,15.56,46.06Z"/><path d="M22.7,44.43a2.09,2.09,0,0,1-1.26.36,2,2,0,0,1-.91-.18,1.44,1.44,0,0,1-.54-.46,3.88,3.88,0,0,1-.35-.68,1.3,1.3,0,0,0-.33-.52.63.63,0,0,0-.46-.18.75.75,0,0,0-.56.23.73.73,0,0,0-.22.54,2,2,0,0,0,.37,1.12,2.7,2.7,0,0,0,.95.92,4.13,4.13,0,0,0,2.1.48,4.33,4.33,0,0,0,1.83-.35,2.63,2.63,0,0,0,1.17-1,2.5,2.5,0,0,0,.41-1.4,2.32,2.32,0,0,0-.24-1.1A2.07,2.07,0,0,0,24,41.5a4.44,4.44,0,0,0-1-.5,13.52,13.52,0,0,0-1.32-.37c-.38-.1-.66-.17-.83-.23a2.66,2.66,0,0,1-.5-.21,1.1,1.1,0,0,1-.38-.32.67.67,0,0,1-.15-.44.87.87,0,0,1,.42-.72,1.86,1.86,0,0,1,1.08-.29,1.66,1.66,0,0,1,1.06.27,2.15,2.15,0,0,1,.56.76,2,2,0,0,0,.34.49.61.61,0,0,0,.45.15.7.7,0,0,0,.55-.25.81.81,0,0,0,.22-.56,1.55,1.55,0,0,0-.18-.7,2.11,2.11,0,0,0-.55-.68,2.94,2.94,0,0,0-1-.52,4.26,4.26,0,0,0-1.37-.2,4.52,4.52,0,0,0-1.72.3,2.5,2.5,0,0,0-1.12.84,2.14,2.14,0,0,0-.39,1.26,2.08,2.08,0,0,0,.37,1.25,2.45,2.45,0,0,0,1,.79,8.79,8.79,0,0,0,1.55.51,8.55,8.55,0,0,1,1.1.3,1.75,1.75,0,0,1,.68.4,1,1,0,0,1,.26.7A1.09,1.09,0,0,1,22.7,44.43Z"/><path d="M26.51,43.91a4.42,4.42,0,0,0,.58.91,3.69,3.69,0,0,0,.84.71,3.35,3.35,0,0,0,1,.41,5.83,5.83,0,0,0,1.23.12,4.05,4.05,0,0,0,1.58-.28,3.25,3.25,0,0,0,1.1-.75,3.34,3.34,0,0,0,.64-.94,2.36,2.36,0,0,0,.2-.88.7.7,0,0,0-.22-.54.73.73,0,0,0-.54-.22.62.62,0,0,0-.52.21,2.09,2.09,0,0,0-.28.56,2.19,2.19,0,0,1-.78,1.09,2.12,2.12,0,0,1-1.27.37,2.22,2.22,0,0,1-1.21-.33,2,2,0,0,1-.79-1,4.25,4.25,0,0,1-.28-1.67,3.69,3.69,0,0,1,.63-2.31,2.07,2.07,0,0,1,1.71-.82,1.93,1.93,0,0,1,1.13.32,2.51,2.51,0,0,1,.8,1,2,2,0,0,0,.38.54.67.67,0,0,0,.5.16.68.68,0,0,0,.51-.23.76.76,0,0,0,.21-.53,2,2,0,0,0-.44-1.15,3.38,3.38,0,0,0-1.24-1,4,4,0,0,0-1.86-.42,4.12,4.12,0,0,0-1.61.31,3.73,3.73,0,0,0-1.32.88,4,4,0,0,0-.87,1.41,5.34,5.34,0,0,0-.3,1.86,5.81,5.81,0,0,0,.12,1.2A4.65,4.65,0,0,0,26.51,43.91Z"/><path d="M39.58,44.43a2,2,0,0,1-1.25.36,2,2,0,0,1-.91-.18,1.44,1.44,0,0,1-.54-.46,3.3,3.3,0,0,1-.35-.68A1.3,1.3,0,0,0,36.2,43a.65.65,0,0,0-.46-.18.77.77,0,0,0-.78.77,2.11,2.11,0,0,0,.36,1.12,2.79,2.79,0,0,0,1,.92,4.16,4.16,0,0,0,2.1.48,4.35,4.35,0,0,0,1.84-.35,2.69,2.69,0,0,0,1.17-1,2.49,2.49,0,0,0,.4-1.4,2.32,2.32,0,0,0-.23-1.1,2.07,2.07,0,0,0-.64-.74,4.32,4.32,0,0,0-1-.5c-.39-.13-.83-.26-1.31-.37s-.67-.17-.83-.23a2.41,2.41,0,0,1-.5-.21,1.14,1.14,0,0,1-.39-.32.72.72,0,0,1-.14-.44.88.88,0,0,1,.41-.72,1.9,1.9,0,0,1,1.09-.29,1.66,1.66,0,0,1,1.06.27,2.42,2.42,0,0,1,.56.76,1.78,1.78,0,0,0,.34.49.61.61,0,0,0,.45.15.7.7,0,0,0,.55-.25.86.86,0,0,0,.22-.56,1.55,1.55,0,0,0-.18-.7,2.16,2.16,0,0,0-.56-.68,2.79,2.79,0,0,0-1-.52,4.3,4.3,0,0,0-1.37-.2,4.48,4.48,0,0,0-1.72.3,2.45,2.45,0,0,0-1.12.84,2.14,2.14,0,0,0-.39,1.26,2,2,0,0,0,.37,1.25,2.45,2.45,0,0,0,1,.79,8.52,8.52,0,0,0,1.55.51,8.55,8.55,0,0,1,1.1.3,1.64,1.64,0,0,1,.67.4.94.94,0,0,1,.27.7A1.1,1.1,0,0,1,39.58,44.43Z"/><path d="M47.59,44.43a2.09,2.09,0,0,1-1.26.36,2,2,0,0,1-.91-.18,1.44,1.44,0,0,1-.54-.46,3.88,3.88,0,0,1-.35-.68,1.41,1.41,0,0,0-.32-.52.67.67,0,0,0-.47-.18.75.75,0,0,0-.56.23.73.73,0,0,0-.22.54,2,2,0,0,0,.37,1.12,2.7,2.7,0,0,0,1,.92,4.13,4.13,0,0,0,2.1.48,4.33,4.33,0,0,0,1.83-.35,2.58,2.58,0,0,0,1.17-1,2.5,2.5,0,0,0,.41-1.4,2.32,2.32,0,0,0-.24-1.1,2,2,0,0,0-.64-.74,4.44,4.44,0,0,0-1-.5,13.52,13.52,0,0,0-1.32-.37c-.38-.1-.66-.17-.83-.23a2.66,2.66,0,0,1-.5-.21,1.1,1.1,0,0,1-.38-.32.66.66,0,0,1-.14-.44.86.86,0,0,1,.41-.72,1.88,1.88,0,0,1,1.09-.29,1.65,1.65,0,0,1,1,.27,2.15,2.15,0,0,1,.56.76,2,2,0,0,0,.34.49.61.61,0,0,0,.45.15.7.7,0,0,0,.55-.25.81.81,0,0,0,.22-.56,1.67,1.67,0,0,0-.17-.7,2.3,2.3,0,0,0-.56-.68,2.84,2.84,0,0,0-1-.52,4.26,4.26,0,0,0-1.37-.2,4.52,4.52,0,0,0-1.72.3,2.5,2.5,0,0,0-1.12.84,2.14,2.14,0,0,0-.39,1.26,2.08,2.08,0,0,0,.37,1.25,2.45,2.45,0,0,0,1,.79,8.79,8.79,0,0,0,1.55.51,8.55,8.55,0,0,1,1.1.3,1.75,1.75,0,0,1,.68.4,1,1,0,0,1,.26.7A1.09,1.09,0,0,1,47.59,44.43Z"/><path d="M56,34H53V16s0,0,0-.06a1.55,1.55,0,0,0,0-.21s0-.05,0-.08a.08.08,0,0,0,0,0,1,1,0,0,0-.17-.29l-11-12a1.42,1.42,0,0,0-.29-.21s0,0,0,0l-.07,0a.86.86,0,0,0-.23,0L41,3H14.42A3.42,3.42,0,0,0,11,6.42V34H8a1,1,0,0,0-1,1V49s0,0,0,.07,0,.13,0,.2l.06.17a.91.91,0,0,0,.11.16l.13.15.05,0L11,52.5v5.08A3.42,3.42,0,0,0,14.42,61H49.58A3.42,3.42,0,0,0,53,57.58V52.5l3.6-2.7,0,0,.13-.15a.91.91,0,0,0,.11-.16l.06-.17c0-.07,0-.13,0-.2s0,0,0-.07V35A1,1,0,0,0,56,34ZM42,6.57,49.73,15H42ZM21,5H40V16a1,1,0,0,0,1,1H51V34H21ZM13,6.42A1.43,1.43,0,0,1,14.42,5H19V34H13ZM11,50Zm8,9H14.42A1.43,1.43,0,0,1,13,57.58V50h6Zm32-1.42A1.43,1.43,0,0,1,49.58,59H21V50H51ZM53,50Zm2-2H9V36H55Z"/></g></svg>